<?xml version="1.0" encoding="UTF-8" standalone="no"?>
<!-- Created with Inkscape (http://www.inkscape.org/) -->

<svg
   width="616.07434"
   height="663.07825"
   viewBox="0 0 616.07436 663.07824"
   version="1.1"
   id="svg1"
   xml:space="preserve"
   inkscape:version="1.3.2 (091e20e, 2023-11-25, custom)"
   sodipodi:docname="Logo.svg"
   inkscape:export-filename="Logo.png"
   inkscape:export-xdpi="96"
   inkscape:export-ydpi="96"
   xmlns:inkscape="http://www.inkscape.org/namespaces/inkscape"
   xmlns:sodipodi="http://sodipodi.sourceforge.net/DTD/sodipodi-0.dtd"
   xmlns="http://www.w3.org/2000/svg"
   xmlns:svg="http://www.w3.org/2000/svg"><sodipodi:namedview
     id="namedview1"
     pagecolor="#ffffff"
     bordercolor="#000000"
     borderopacity="0.25"
     inkscape:showpageshadow="2"
     inkscape:pageopacity="0.0"
     inkscape:pagecheckerboard="0"
     inkscape:deskcolor="#d1d1d1"
     inkscape:document-units="mm"
     inkscape:zoom="1.0242632"
     inkscape:cx="166.94927"
     inkscape:cy="401.7522"
     inkscape:window-width="1920"
     inkscape:window-height="1009"
     inkscape:window-x="1912"
     inkscape:window-y="-8"
     inkscape:window-maximized="1"
     inkscape:current-layer="layer1"
     inkscape:export-bgcolor="#d6cfc1ff" /><defs
     id="defs1" /><g
     inkscape:label="Capa 1"
     inkscape:groupmode="layer"
     id="layer1"
     transform="translate(-219.39519,-150.35955)"><path
       style="fill:#000000"
       d="m 340.37192,560.41365 -1.23822,-1.49196 0.69431,-1.87675 0.69431,-1.87675 1.07294,-0.73468 1.07295,-0.73469 60.67857,-0.0153 60.67857,-0.0153 1.57143,1.57143 1.57143,1.57143 v 1.36955 1.36956 l -0.93477,0.57772 -0.93477,0.57772 -61.84427,0.60001 -61.84426,0.60001 z m -1.40991,-13.95165 -1.7938,-1.79381 v -5.06574 -5.06574 l 1.12833,-2.18426 1.12833,-2.18426 7.97797,-8.23672 7.97797,-8.23672 -0.65372,-4.26328 -0.65372,-4.26328 -0.20258,-3.87349 -0.20258,-3.87349 47.47128,-0.37366 47.47128,-0.37367 1.8717,0.59406 1.87171,0.59405 -0.5284,4.1531 -0.5284,4.1531 -0.69346,3.35476 -0.69346,3.35476 7.97627,7.64524 7.97627,7.64524 1.6526,2.71482 1.65261,2.71482 -0.0222,4.78518 -0.0222,4.78518 -1.72776,2.17889 -1.72776,2.1789 -62.4562,0.36491 -62.45619,0.36491 z m 27.7062,-6.82912 9,-1.01889 4.4985,-2.76476 4.49851,-2.76475 4.25149,-6.92093 4.2515,-6.92094 v -0.78721 -0.78721 h -5.89302 -5.89301 l -0.51447,-1.34068 -0.51446,-1.34069 0.7433,-1.20269 0.7433,-1.20269 7.13678,-0.76256 7.13678,-0.76256 0.69407,-0.69407 0.69406,-0.69406 -0.62546,-0.62546 -0.62547,-0.62546 -15.7912,-1.18358 -15.7912,-1.18357 -0.64425,0.94693 -0.64424,0.94694 -0.60225,3.76628 -0.60226,3.76629 -6.94199,8.04662 -6.94199,8.04662 -1.06151,1.98346 -1.06151,1.98345 v 2.56574 2.56574 l 5.75,-0.008 5.75,-0.008 z m -3.29351,-47.65799 -2.2935,-0.4572 0.6747,-2.17475 0.6747,-2.17475 1.92828,-2.7379 1.92828,-2.73789 3.3797,-7.31492 3.3797,-7.31493 2.12592,-9.94718 2.12592,-9.94718 0.57347,-19.25 0.57347,-19.25 h 25.25293 25.25293 l 0.45813,22.25 0.45814,22.25 2.70396,9 2.70397,9 4.4464,9.23559 4.44641,9.2356 v 1.0144 1.01441 h -25.91822 -25.91821 l -1.47266,-0.56511 -1.47266,-0.56511 1.52265,-3.05222 1.52264,-3.05221 0.87441,-3.63268 0.87441,-3.63267 1.4755,-10 1.4755,-10 0.0183,-14.62755 0.0183,-14.62756 -1.28808,-1.069 -1.28807,-1.06901 -1.75679,18.46199 -1.75678,18.46199 -1.895,7.40939 -1.89501,7.4094 -2.18328,5.07517 -2.18328,5.07518 h -0.87686 -0.87685 v -0.82657 -0.82657 l 3.01799,-10.74805 3.018,-10.74805 1.482,-12.66925 1.48201,-12.66925 v -7.25613 -7.25613 h -2 -2 l -0.0158,2.25 -0.0158,2.25 -0.97867,11.81185 -0.97867,11.81184 -1.96387,7.69171 -1.96387,7.69171 -4.11635,10.99645 -4.11635,10.99644 -0.67528,0.67924 -0.67528,0.67924 -2.5,0.45271 -2.5,0.45271 z m -9.77243,-88.60639 -1.43406,-0.79969 v -3.41512 -3.41513 l 2.08821,-1.11758 2.08821,-1.11757 47.93086,-0.57401 47.93086,-0.574 2.48093,2.33071 2.48093,2.33071 -0.0318,1.57569 -0.0318,1.57568 -1.51143,2 -1.51143,2 h -49.5227 -49.5227 z m 14.21035,-16.18456 -0.64441,-1.67932 v -1.88303 -1.88303 l 1.95855,-1.04819 1.95856,-1.04819 34.79144,0.26301 34.79145,0.263 0.31161,3.77099 0.31162,3.77099 -26.31162,-0.24199 -26.31161,-0.24199 -10.10559,0.81853 -10.10558,0.81854 z m 4.17173,-13.19233 -1.68385,-0.44459 -0.64024,-2.91501 -0.64025,-2.91502 0.55019,-0.89023 0.55019,-0.89022 30.77391,-0.62498 30.77391,-0.62498 4,0.75265 4,0.75264 0.32225,2.79863 0.32226,2.79864 -1.1947,1.43952 -1.1947,1.43953 -32.12756,-0.116 -32.12755,-0.116 z m 0.57934,-14.47562 -1.01173,-1.3478 -1.79624,-6 -1.79624,-6 -7.34698,-14.5 -7.34697,-14.5 -0.63369,-2.65686 -0.6337,-2.65686 1.02605,-1.91718 1.02604,-1.91718 3.80899,-1.11502 3.80899,-1.11503 7,-0.6397 7,-0.63971 19,-0.22523 19,-0.22523 19.23873,0.73514 19.23873,0.73513 2.47967,2.81887 2.47966,2.81886 0.0316,2.35498 0.0316,2.35497 -2.982,4.41848 -2.982,4.41849 -5.02461,9.83538 -5.02461,9.83538 -1.81628,7.39116 -1.81628,7.39116 -22.95353,0.26788 -22.95353,0.26788 -1.24416,-7.76788 -1.24416,-7.76788 -2.47942,-8.44864 -2.47942,-8.44864 v -3.10558 -3.10558 l 3.0512,-4.81124 3.0512,-4.81125 -0.45006,-0.45006 -0.45006,-0.45005 -11.85114,1.09072 -11.85114,1.09072 -1.75,0.54219 -1.75,0.54219 v 1.22228 1.22228 l 6.36633,13.96033 6.36634,13.96033 1.8383,5.5 1.8383,5.5 1.45035,1.75 1.45035,1.75 h 0.84501 0.84502 v -2.38813 -2.38813 l -2.63413,-8.86187 -2.63413,-8.86187 -0.70734,-4.25 -0.70733,-4.25 h 0.29931 0.29931 l 2.42103,4.25 2.42104,4.25 2.02849,8.5 2.0285,8.5 0.56762,3.25 0.56763,3.25 -3.225,0.011 -3.225,0.011 -3.54639,0.5868 -3.54639,0.58679 z m 23.18298,-71.3478 0.66334,-9 -7.93998,0.32047 -7.93997,0.32046 -1.2266,-1.47796 -1.22661,-1.47797 0.29568,-7.3425 0.29568,-7.3425 9.21867,-0.28711 9.21868,-0.28711 -0.21868,-8.21289 -0.21867,-8.21289 8.72128,-0.28851 8.72128,-0.28852 0.52132,2.28852 0.52131,2.28851 0.2574,5.79048 0.25741,5.79048 7.78285,0.42081 7.78286,0.42081 0.96714,0.59773 0.96715,0.59773 v 7.83399 7.83399 l -1.58179,0.60699 -1.58179,0.60699 h -6.91821 -6.91821 v 8.03139 8.03138 l -1.25,0.41566 -1.25,0.41566 -9.29244,0.30296 -9.29243,0.30295 z"
       id="path1" /><path
       style="fill:#000000;stroke-width:1.5299"
       d="m 607.29093,566.56149 -1.71381,-3.20231 0.87518,-3.48704 0.87521,-3.48704 4.80077,-0.96017 -3.98602,1.23655 61.69018,0.48816 59.49348,0.48815 0.12733,-1.33712 1.83587,1.83587 v 2.46534 2.46534 l -3.11937,3.3483 2.57094,-1.65173 -61.45004,-0.97632 -61.06001,-0.2022 z m 22.9479,-19.35872 -22.2604,-0.46579 -1.6676,-5.69797 -1.66757,-5.69798 -2.08031,-5.10556 -2.08032,-5.10554 3.82476,-3.01069 3.82475,-3.01066 4.20722,-3.87019 4.20723,-3.8702 v -2.74278 -2.74279 l -2.29484,-1.90455 -2.29486,-1.90457 v -3.26936 -3.26937 l 49.33928,0.56619 49.33931,0.56618 1.2029,1.7431 1.2029,1.74308 -0.73781,5.05585 -0.73783,5.05582 9.86176,10.74617 9.86172,10.74616 v 2.44819 2.44818 l -1.78663,4.94089 -1.78668,4.94093 -4.52416,0.90483 -4.5242,0.90484 -33.0841,-0.3383 -33.0841,-0.3383 z m 3.10998,-9.0261 4.9455,-0.98909 4.423,-10.1027 4.42301,-10.10266 1.58387,-2.73957 1.58388,-2.73955 -0.9225,-1.49262 -0.92248,-1.49263 -1.40667,0.86937 -1.40668,0.86936 0.76451,-1.99184 0.76452,-1.99183 h -10.61065 -10.61064 l -0.82317,4.1109 -0.82318,4.11088 -7.70701,8.08034 -7.70704,8.08035 v 3.23526 3.23525 l 1.01994,1.01995 1.01995,1.01994 h 8.73317 8.73318 z m 20.68034,-29.6089 0.94554,-1.5299 h -3.24038 -3.24038 l 0.94553,1.5299 0.94553,1.52989 h 1.34932 1.34931 z m -28.30316,-20.69186 v -2.54587 l 5.30178,-15.53688 5.30178,-15.53686 2.43464,-11.47426 2.43465,-11.47425 -0.33371,-14.53407 -0.33369,-14.53405 1.70004,0.35693 1.70004,0.35693 21.30638,1.01709 21.30636,1.01709 0.7966,20.80954 0.79659,20.80954 2.50041,9.17941 2.50044,9.1794 5.3063,11.25056 5.30632,11.25058 v 1.37111 1.37111 h -29.0681 -29.06812 v -1.69358 -1.69359 l -2.51124,0.96365 -2.51124,0.96366 1.99372,-2.40229 1.99373,-2.40228 0.94036,1.52155 0.94039,1.52155 1.89654,-1.17211 1.89655,-1.17213 2.31278,-11.09221 2.31279,-11.09216 -0.42497,-20.80488 -0.42496,-20.80486 -1.56687,-0.52022 -1.56688,-0.52019 -3.16399,23.04414 -3.16397,23.04415 -5.97845,11.77342 -5.97844,11.77343 -3.44229,0.48887 -3.44227,0.48889 z m 35.18772,-89.42267 -40.54237,-0.80326 -0.49991,-3.52651 -0.49993,-3.52648 1.6091,-1.9388 1.60907,-1.93882 41.5901,0.55395 41.5901,0.55396 1.28538,0.79441 1.28538,0.79441 v 3.68063 3.68063 l -2.95923,1.58372 -2.95921,1.58375 -0.48306,-0.34415 -0.48306,-0.34416 z M 631.8456,380.1654 v -1.42063 l 2.40413,-2.40413 2.40413,-2.40413 h 28.14005 28.14006 l 1.52991,2.85864 1.52989,2.85866 -0.96612,0.96609 -0.96609,0.96612 H 662.95358 631.8456 Z m 11.76274,-11.95198 -8.8909,-0.55481 0.47645,-4.12808 0.47645,-4.12807 30.32033,-0.41517 30.3203,-0.41517 -0.48725,4.23992 -0.48725,4.23992 -9.94435,0.96859 -9.94436,0.96861 -11.47425,-0.11041 -11.47426,-0.11041 z m -6.43609,-16.07798 -0.69692,-1.91238 -7.81041,-22.94851 -7.8104,-22.94851 -3.10696,-7.26619 -3.10693,-7.26618 1.90526,-2.2957 1.90526,-2.29569 h 2.18869 2.18869 l 5.52906,3.75709 5.52905,3.75708 1.21507,-0.75096 1.21509,-0.75095 0.98424,-5.24647 0.98424,-5.24649 2.03244,-1.68677 2.03244,-1.68677 2.7797,2.81291 2.7797,2.8129 2.46357,3.76462 2.46358,3.76463 4.94946,-8.76997 4.94947,-8.76996 1.36152,-0.84146 1.36152,-0.84146 4.90657,6.96101 4.90657,6.96102 h 1.56041 1.5604 l 3.12585,-3.92021 3.12588,-3.92021 2.73416,1.04919 2.73416,1.04921 -1.00408,6.69577 -1.00408,6.69576 h 2.49894 2.49897 l 6.0588,-3.82476 6.05879,-3.82475 h 2.92652 2.92651 l 0.91088,2.37367 0.91088,2.37368 -4.61229,9.13688 -4.61228,9.13688 -5.13865,16.41012 -5.13863,16.41015 -1.37346,5.35465 -1.37344,5.35465 -11.4239,0.94744 -11.4239,0.94747 -14.96454,0.19996 -14.96455,0.19998 z m 13.09551,-9.17941 0.0633,-1.91237 -6.56544,-21.02684 -6.56542,-21.02681 -4.20724,-0.009 -4.20722,-0.009 0.0124,0.38248 0.0124,0.38248 2.92994,9.1794 2.92993,9.1794 3.97509,11.47425 3.97509,11.47426 0.68479,1.91237 0.68477,1.91238 h 3.10783 3.1078 z m 7.10742,-81.9334 -4.11098,-4.29094 v -3.18908 -3.18908 l 2.67734,-3.09633 2.67732,-3.09635 3.32058,-0.96237 3.32058,-0.96237 3.94644,4.25608 3.94645,4.25606 v 3.93438 3.93437 l -3.11939,3.34829 -3.11941,3.34829 h -2.71397 -2.71397 z"
       id="path2"
       sodipodi:nodetypes="ccccccccccccccccccccccccccccccccccccccccccccccccccccccccccccccccccccccccccccccccccccccccccccccccccccccccccccccccccccccccccccccccccccccccccccccccccccccccccccccccccccccccccccccccccccccccccccccccccccccccccccccccccccccccccccccccccccccccccccccccccccccccccccccccccccc" /><ellipse
       style="fill:none;stroke:#000000;stroke-width:8.56063;stroke-dasharray:none;stroke-opacity:1"
       id="path3"
       cx="527.43237"
       cy="466.681"
       rx="303.75687"
       ry="312.04114" /><path
       style="fill:#000000"
       d="m 532.70828,463.88837 -4.22412,-1.58993 -3.34688,1.21025 -3.34688,1.21025 h -5.49969 -5.49968 l -5.42245,-2.75 -5.42245,-2.75 -3.24824,-4.31644 -3.24825,-4.31643 -1.63532,-5.62531 -1.63532,-5.62531 0.58305,-6.05825 0.58305,-6.05826 1.66162,-4.82036 1.66163,-4.82035 4.83125,-4.83126 4.83126,-4.83126 5.59908,-2.73937 5.59908,-2.73938 7.20169,0.74788 7.20169,0.74788 2,-0.0654 2,-0.0654 6,-0.633 6,-0.63301 5.64482,2.12401 5.64482,2.12401 3.85518,2.7961 3.85518,2.79609 2.6923,3.92141 2.6923,3.92141 1.9256,7.23487 1.9256,7.23487 -1.45368,4.76513 -1.45368,4.76513 -1.66422,4 -1.66422,4 -5,4.86029 -5,4.86029 -4,1.86775 -4,1.86774 -6.5,-0.0983 -6.5,-0.0984 z m 21.08542,-7.64152 3.8613,-1.86142 3.33957,-4.58325 3.33957,-4.58324 1.16571,-4.8202 1.16571,-4.82021 -0.64307,-4.02156 -0.64308,-4.02156 -1.94974,-3.82181 -1.94974,-3.82181 -4.27377,-3.45423 -4.27376,-3.45424 -2.45388,-1.27648 -2.45387,-1.27649 -5.04613,-1.34384 -5.04612,-1.34383 -0.7848,-0.0119 -0.7848,-0.0119 3.49472,3.0684 3.49471,3.06839 2.60028,5.31479 2.60028,5.31478 0.56589,5.48293 0.56589,5.48294 -2.2621,6.88388 -2.2621,6.88389 -4.28747,4.15985 -4.28746,4.15986 0.67348,0.68496 0.67348,0.68496 6,-0.40015 6,-0.40015 z m -32.73979,0.8754 2.12151,-0.56937 -2.41799,-2.418 -2.41799,-2.41799 -2.44375,-5.24898 -2.44376,-5.24897 -0.01,-6.5685 -0.01,-6.5685 1.54292,-5.19559 1.54293,-5.1956 3.06066,-3.48591 3.06067,-3.4859 h -3.71826 -3.71827 l -4.76726,2.59467 -4.76726,2.59467 -2.17559,2.94264 -2.17559,2.94264 -1.44248,4.08842 -1.44247,4.08841 v 5.90639 5.9064 l 1.34846,3.21788 1.34846,3.21788 2.85196,3.38254 2.85196,3.38255 3.04958,1.32831 3.04958,1.32831 3,0.0255 3,0.0255 z m 14.77447,-8.85582 2.7064,-3.54828 1.56532,-3.74635 1.56533,-3.74634 -0.51877,-5.72105 -0.51877,-5.72104 -1.84774,-3.76229 -1.84775,-3.76229 -4.32774,-3.26993 -4.32774,-3.26992 h -1.02925 -1.02925 l 0.5047,1.31522 0.50469,1.31521 -2.89771,5.90932 -2.8977,5.90933 0.006,5.52546 0.006,5.52546 0.98193,3.53452 0.98193,3.53452 3.01271,4.75055 3.01271,4.75055 1.84457,-0.98719 1.84458,-0.98719 z m -36.18092,-48.80426 -3.28493,-1.05259 -4.40892,-3.88088 -4.40891,-3.88088 -2.61526,-5.34541 -2.61527,-5.3454 -1.32032,-5.0051 -1.32032,-5.0051 0.63198,-1.02256 0.63198,-1.02257 9.8466,3.34134 9.8466,3.34133 3.85341,2.67042 3.85342,2.67042 1.48854,2.27181 1.48855,2.27181 2.63869,6.37506 2.63868,6.37507 0.56126,1.33877 0.56126,1.33877 -3.58741,-0.30908 -3.58742,-0.30907 -0.7203,0.7203 -0.72031,0.72031 -3.08333,-0.10209 -3.08333,-0.10209 z m 30.18602,-4.99323 0.67966,-5.25 0.58649,-5.5 0.58649,-5.5 -1.2901,1.21324 -1.29011,1.21325 -0.46819,8.0876 -0.46818,8.08759 -2.50092,-2.30084 -2.50091,-2.30084 -2.35789,-5 -2.35789,-5 -0.004,-4 -0.004,-4 1.10058,-4 1.10058,-4 3.03249,-7.25 3.03249,-7.25 h 1.17275 1.17274 l 4.58775,8.25 4.58775,8.25 1.18901,4.43423 1.18901,4.43424 -0.57639,3.06576 -0.57639,3.06577 -4.19674,8.25 -4.19675,8.25 h -0.95431 -0.95431 z m 12.59892,4.42515 v -0.82485 l 2.36192,-6.94433 2.36191,-6.94432 2.16525,-4.24423 2.16524,-4.24423 3.81617,-2.7366 3.81616,-2.73659 6.47387,-3.42714 6.47387,-3.42713 1.54987,0.59473 1.54986,0.59474 -1.41917,8.3324 -1.41917,8.3324 -3.40013,5.16267 -3.40012,5.16268 -3.54574,2.70446 -3.54573,2.70447 -3.75203,1.33897 -3.75203,1.33896 -4.25,0.0439 -4.25,0.0439 z m 13.41483,-9.05913 3.58517,-4.88398 v -0.58463 -0.58464 l -1.37272,0.52676 -1.37272,0.52676 -2.68969,4.94185 -2.6897,4.94186 h 0.47725 0.47724 z m -31.21867,-70.41363 -3.19616,-3.29761 v -2.5988 -2.5988 l 3.58193,-3.14497 3.58193,-3.14498 2.04899,0.65033 2.049,0.65032 2.86907,2.55636 2.86908,2.55635 v 2.33471 2.3347 h -0.83102 -0.83102 l -1.33796,2.5 -1.33796,2.5 h -1.33102 -1.33102 v 1 1 h -1.80384 -1.80383 z"
       id="path4" /><path
       style="fill:#000000"
       d="m 313.95617,634.99914 -4.5,-1.56396 -3.97763,-2.91083 -3.97764,-2.91083 -2.80024,-4.16946 -2.80025,-4.16946 -1.60057,-5.5058 -1.60058,-5.50579 0.54942,-6.55346 0.54942,-6.55346 2.19384,-5.86356 2.19383,-5.86356 3.7412,-3.74119 3.7412,-3.7412 5.68271,-2.78029 5.68271,-2.78029 6.96931,-0.49866 6.96931,-0.49865 5.85623,1.24278 5.85623,1.24278 2.09376,-1.12055 2.09377,-1.12055 1.04198,1.94697 1.04199,1.94697 v 9.6353 9.63529 l -2.22561,-0.31955 -2.22561,-0.31955 -1.52439,-4.07076 -1.52439,-4.07076 -1.80433,-2.72699 -1.80434,-2.72698 -3.19566,-1.94852 -3.19567,-1.94852 -3.78212,-0.004 -3.78212,-0.004 -3.27857,1.36987 -3.27858,1.36988 -3.55841,4.1572 -3.5584,4.15719 -1.27238,5.99573 -1.27238,5.99572 0.64613,6.95212 0.64613,6.95212 2.03812,5.44736 2.03812,5.44736 3.87936,3.50477 3.87937,3.50478 4.67478,0.70102 4.67477,0.70103 4.15309,-1.35003 4.15309,-1.35004 5.31522,-5.27804 5.31522,-5.27804 h 0.93478 0.93478 v 2.54966 2.54966 l -1.41072,2.70034 -1.41073,2.70034 -2.83927,2.65894 -2.83928,2.65893 -5.4315,1.59107 -5.4315,1.59106 -6.5685,-0.0477 -6.5685,-0.0477 z m 142,-7.34056 v -9 h 0.97968 0.97967 l 1.99243,3.90547 1.99242,3.90547 2.5192,1.98161 2.5192,1.9816 3.5914,0.67375 3.59139,0.67375 2.41731,-1.58388 2.4173,-1.58388 v -2.89987 -2.89986 l -8.14518,-4.32708 -8.14518,-4.32708 -3.10482,-3.84333 -3.10482,-3.84332 0.0972,-4.46358 0.0972,-4.46359 2.0073,-2.69309 2.00729,-2.69309 3.39547,-2 3.39547,-2 7,0.21503 7,0.21503 2.5,0.28497 2.5,0.28497 0.5773,6 0.57731,6 -0.85483,0.97752 -0.85483,0.97752 -1.71494,-1.08176 -1.71494,-1.08175 -0.9032,-3.14927 -0.9032,-3.14927 -3.96689,-1.18851 -3.9669,-1.18851 -2.63744,1.47543 -2.63744,1.47543 -0.30717,2.12209 -0.30716,2.12209 3.30716,2.48263 3.30717,2.48264 5,2.52257 5,2.52256 3.37629,3.5172 3.3763,3.5172 0.10183,3.88366 0.10184,3.88366 -3.14228,3.81213 -3.14229,3.81213 -2.83584,1.86971 -2.83585,1.86972 -4.88398,0.007 -4.88398,0.007 -3.86328,-1.15747 -3.86328,-1.15747 -1.83148,1.65747 -1.83148,1.65747 h -0.67126 -0.67126 z m 39.05245,0.12755 -0.0525,-9.37244 1.50906,1.2524 1.50906,1.25241 2.15472,3.83382 2.15473,3.83381 3.23734,1.53622 3.23735,1.53623 h 1.96401 1.96401 l 2.63486,-2.07258 2.63486,-2.07258 v -1.77244 -1.77243 l -1.75,-1.51301 -1.75,-1.51302 -6.26834,-3.29107 -6.26834,-3.29108 -3.48166,-3.85378 -3.48166,-3.85378 v -4.04677 -4.04678 l 1.57113,-3.03823 1.57113,-3.03823 5.62332,-2.57444 5.62332,-2.57444 7.55555,1.26144 7.55555,1.26144 0.13755,0.15089 0.13755,0.15089 0.71064,6.25 0.71063,6.25 h -2.55804 -2.55805 l -1.17397,-3.91837 -1.17397,-3.91837 -2.11617,-0.56798 -2.11617,-0.56797 -3.55,-0.0137 -3.55,-0.0136 -1.2,1.2 -1.2,1.2 v 1.62568 1.62569 l 2.26246,2.12547 2.26245,2.12546 4.98755,2.16947 4.98754,2.16947 3.25105,2.43107 3.25105,2.43107 1.49895,2.89865 1.49895,2.89865 -0.004,2.79966 -0.004,2.79966 -1.91112,3.13417 -1.91112,3.13417 -3.33514,2.48572 -3.33514,2.48572 -4.16606,0.6285 -4.16606,0.62851 -6.04056,-1.88004 -6.04055,-1.88003 -1.49094,2.13164 -1.49093,2.13164 z m 122.39194,6.56097 -5.0556,-2.41639 -3.66486,-4.28156 -3.66486,-4.28156 -1.13722,-3.44582 -1.13722,-3.44581 0.38794,-6.8656 0.38794,-6.86559 2.98682,-4.24973 2.98682,-4.24973 5.48293,-2.87751 5.48292,-2.87751 7.57312,0.33414 7.57312,0.33415 4.18458,2.76928 4.18457,2.76928 2.93659,4.05384 2.93659,4.05384 1.14949,5.53707 1.14949,5.53708 -1.64751,4.31395 -1.64752,4.31395 -2.77337,3.82585 -2.77337,3.82586 -5.1952,2.82455 -5.1952,2.82456 -5.22769,0.4779 -5.22769,0.47789 z m 15.25633,-5.93852 2.04935,-2.25 1.00884,-2 1.00883,-2 0.67066,-4.05248 0.67065,-4.05247 -1.5351,-7.3624 -1.53511,-7.36241 -2.145,-2.28325 -2.145,-2.28325 -2.84614,-0.62511 -2.84613,-0.62512 -3.01213,1.77931 -3.01212,1.7793 -1.51616,3.19507 -1.51616,3.19506 v 5.91737 5.91737 l 1.51645,5.10646 1.51646,5.10645 3.06027,2.57505 3.06027,2.57505 h 2.74896 2.74896 z m 110.81296,6.0821 -2.75604,-2.1679 -1.37882,-3.29999 -1.37882,-3.29998 v -14.46569 -14.4657 l -2.75,-0.31642 -2.75,-0.31642 -0.31068,-2.18234 -0.31069,-2.18234 2.31069,-1.21813 2.31068,-1.21813 5.807,-5.34953 5.807,-5.34953 h 1.443 1.443 v 2.875 2.875 l 0.6285,3.14249 0.6285,3.14249 5.08542,-0.26749 5.08543,-0.26749 0.36865,1.79804 0.36865,1.79803 -1.20502,1.45197 -1.20502,1.45196 -5.12755,-0.002 -5.12756,-0.002 0.30015,14.39196 0.30015,14.39195 1.99995,1.80993 1.99995,1.80993 2.6999,-1.07732 2.6999,-1.07731 1.75,-0.73 1.75,-0.73 v 1.9199 1.91989 l -2.75,2.56491 -2.75,2.5649 -2.18426,1.12219 -2.18426,1.12219 h -3.93088 -3.93088 z m -389.51368,-1.2237 v -2.39159 l 2.36683,-0.59403 2.36682,-0.59404 0.61974,-3.76437 0.61974,-3.76437 -0.64882,-23.34365 -0.64882,-23.34365 -1.58775,-0.4785 -1.58774,-0.47851 -1.5,-0.78683 -1.5,-0.78684 v -1.89101 -1.89101 l 7,-0.83602 7,-0.83602 2.5,-0.16398 2.5,-0.16398 0.5,13.90867 0.5,13.90868 1.42717,-1.72461 1.42717,-1.72462 2.77317,-1.43406 2.77317,-1.43406 h 5.47294 5.47293 l 3.09927,2.60786 3.09926,2.60786 1.22746,2.14214 1.22746,2.14214 0.5,15.48917 0.5,15.48918 2.80751,1.34295 2.80751,1.34295 -0.32121,1.66787 -0.3212,1.66788 h -11.97261 -11.97261 l -0.31475,-1.63438 -0.31475,-1.63438 3.05105,-1.0636 3.05106,-1.06361 v -14.59747 -14.59747 l -2.45454,-2.45455 -2.45455,-2.45454 -1.79545,0.004 -1.79546,0.004 -3.18618,1.94275 -3.18618,1.94275 -1.09377,2.04374 -1.09377,2.04373 0.27995,12.748 0.27995,12.748 2.75,1.31634 2.75,1.31635 v 1.94543 1.94544 h -11.5 -11.5 z m 67.5,0.73275 -3,-1.57877 -2.84158,-2.63119 -2.84158,-2.63119 -2.01935,-3.92761 -2.01935,-3.92761 -0.50944,-5.61811 -0.50943,-5.6181 2.5712,-5.07403 2.57121,-5.07402 3.16904,-2.66658 3.16904,-2.66657 2.6433,-1.3669 2.64329,-1.3669 4.55793,-0.6835 4.55792,-0.68351 4.05675,1.09237 4.05675,1.09237 4.0592,4.40371 4.0592,4.40372 1.13575,4.21783 1.13574,4.21784 -0.82279,0.80792 -0.8228,0.80791 -14.84512,0.71426 -14.84513,0.71426 0.58609,2.93046 0.5861,2.93046 1.61549,3.4044 1.61549,3.4044 3.35254,2.07198 3.35253,2.07198 3.47276,0.56355 3.47275,0.56355 5.77545,-3.61257 5.77545,-3.61256 0.99694,0.99694 0.99695,0.99694 -4.38454,4.46752 -4.38454,4.46752 -3.22073,1.52834 -3.22074,1.52834 -6.34887,-0.04 -6.34887,-0.04 z m 17.17325,-29.93205 0.61049,-1.59089 -1.63426,-3.42708 -1.63426,-3.42708 -2.5479,-1.1609 -2.5479,-1.1609 -2.65687,0.93437 -2.65687,0.93437 -1.69793,2.9945 -1.69793,2.99451 -0.6723,2.25 -0.67229,2.25 h 8.59877 8.59877 z m 111.32675,29.1322 v -2.4022 l 2.22497,-0.31955 2.22497,-0.31955 1.32615,-2.5 1.32616,-2.5 -0.34323,-24.14705 -0.34324,-24.14704 -1.33033,-1.60296 -1.33034,-1.60295 h -2.37755 -2.37756 v -2.60783 -2.60783 l 18.75,0.3605 18.75,0.3605 5.801,2.84583 5.80099,2.84582 2.47742,3.74364 2.47743,3.74364 0.60103,5.07474 0.60102,5.07474 -2.23181,4.61031 -2.23182,4.61031 -3.367,2.56814 -3.36701,2.56814 -6.11972,1.90467 -6.11972,1.90468 h -5.4109 -5.41091 v 8.34501 8.34501 l 1.75,1.53671 1.75,1.5367 2.30687,0.70372 2.30687,0.70372 -0.31964,1.66456 -0.31964,1.66457 -13.73723,0.22175 -13.73723,0.22175 z m 34.08222,-31.16199 2.89641,-2.89641 1.07452,-5.81259 1.07451,-5.81258 -0.6084,-2.77003 -0.6084,-2.77002 -2.81947,-3.37728 -2.81948,-3.37729 -5.88596,-0.0316 -5.88595,-0.0315 -0.27953,13.95184 -0.27954,13.95185 0.54635,1.42376 0.54636,1.42377 5.07608,-0.48775 5.07609,-0.48774 z m 69.58445,32.95402 -0.66667,-0.66667 v -1.38535 -1.38535 l 2.90811,-1.01377 2.9081,-1.01377 0.44497,-2.18421 0.44497,-2.18421 -0.60308,-14 -0.60307,-14 -2.75,-0.31643 -2.75,-0.31642 v -2.41452 -2.41453 l 2.25,-0.46646 2.25,-0.46647 5.90677,-0.64413 5.90677,-0.64413 1.34323,-0.51545 1.34323,-0.51544 v 20.0718 20.07181 l 2,1.07037 2,1.07036 v 2.46482 2.46482 H 665.12284 654.2895 Z m 25.33333,-0.76642 v -1.49655 l 2.25,-1.18488 2.25,-1.18489 0.73469,-1.1003 0.73469,-1.10029 0.0153,-15.75 0.0153,-15.75 h -2.44098 -2.44099 l -0.56226,-0.90976 -0.56226,-0.90976 0.55908,-1.45694 0.55908,-1.45693 6.19417,-1.60367 6.19416,-1.60368 2,-0.27963 2,-0.27963 -0.0825,4.19884 -0.0825,4.19884 2.92041,-2.19884 2.92042,-2.19884 2.66211,-1.74474 2.66212,-1.74473 4.5,-0.002 4.5,-0.002 3.20145,1.95204 3.20145,1.95204 1.65959,3.20928 1.65958,3.20929 0.63897,15.58494 0.63896,15.58494 2.30942,0.32733 2.30941,0.32734 -0.30941,2.17266 -0.30942,2.17267 -11.75,0.2373 -11.75,0.2373 v -1.86598 -1.86598 l 2.86337,-1.18605 2.86338,-1.18605 0.54173,-11.68527 0.54173,-11.68527 -1.84887,-4.25 -1.84888,-4.25 h -2.99907 -2.99907 l -3.55716,2.09877 -3.55716,2.09878 v 14.33167 14.33167 l 2.25,0.31955 2.25,0.31956 v 2 2 l -11.75,0.28173 -11.75,0.28174 z m -21,-56.56691 -2,-2 v -2 -2 l 2,-2 2,-2 h 3.92857 3.92857 l 1.57143,1.57142 1.57143,1.57143 v 2.87187 2.87187 l -2.22251,1.5567 -2.2225,1.55671 h -3.2775 -3.27749 z"
       id="path5"
       sodipodi:nodetypes="cccccccccccccccccccccccccccccccccccccccccccccccccccccccccccccccccccccccccccccccccccccccccccccccccccccccccccccccccccccccccccccccccccccccccccccccccccccccccccccccccccccccccccccccccccccccccccccccccccccccccccccccccccccccccccccccccccccccccccccccccccccccccccccccccccccccccccccccccccccccccccccccccccccccccccccccccccccccccccccccccccccccccccccccccccccccccccccccccccccccccccccccccccccccccccccccccccccccccccccccccccccccccccccccccccccccccccccccccccccccccccccccccccccccccccccccccccccccccccccccccccccccccccccccccccccccccccccccccccccccccccccccccccccccccccccccccccccccccccccccccccccccccccccccccc" /><path
       style="fill:#000000"
       d="m 447.59555,714.98723 0.0439,-3.25 1.37492,-3.5 1.37491,-3.5 2.93132,-8 2.93131,-8 3.08905,-6.10098 3.08905,-6.10099 2.67994,-3.18493 2.67994,-3.18493 2.63089,-1.32127 2.63088,-1.32126 3.23906,-0.61563 3.23907,-0.61563 1.51093,0.5798 1.51094,0.5798 v 17.58829 17.58829 l 2.72757,2.84697 2.72757,2.84698 -8.89687,-0.29226 -8.89687,-0.29225 -0.43605,-1.31607 -0.43606,-1.31607 2.10536,-0.55056 2.10535,-0.55056 -0.0153,-13.63337 -0.0153,-13.63337 -0.92364,-1.46024 -0.92364,-1.46023 -2.04962,1.85488 -2.04963,1.85489 -2.9529,4.60535 -2.95291,4.60535 -1.07947,4.82459 -1.07947,4.82459 -2.35584,4.67541 -2.35584,4.67541 -0.74365,3.5 -0.74364,3.5 -1.40525,2.75 -1.40524,2.75 h -1.47432 -1.47432 z m 72.95611,-0.13071 v -1.38071 l 3.57538,-9.86929 3.57538,-9.86929 3.88596,-11.86652 3.88595,-11.86652 1.56172,-2.38348 1.56172,-2.38348 h 1.47694 1.47695 v 1.73053 1.73053 l -3.40542,9.01947 -3.40542,9.01947 -4.25761,13.5 -4.2576,13.5 -0.95942,1.25 -0.95942,1.25 h -1.87755 -1.87756 z m 112.55578,-6.33452 -2.94422,-1.55217 -10.30578,0.52598 -10.30578,0.52598 v -1.44194 -1.44194 l 1.47914,-2.86034 1.47914,-2.86034 3.5905,-2.9596 3.59051,-2.95959 3.93035,-5.23082 3.93036,-5.23081 v -3.41577 -3.41577 l -3.4091,-1.62569 -3.40911,-1.62568 -1.53572,0.58931 -1.53572,0.58931 -0.66647,3.55255 -0.66646,3.55256 h -0.95445 -0.95445 l -1.93426,-1.03518 -1.93426,-1.03519 v -2.09674 -2.09673 l 3.5712,-3.36808 3.57121,-3.36808 5.67879,0.0318 5.6788,0.0318 1.91976,1.45257 1.91977,1.45257 1.82364,2.76563 1.82365,2.76562 0.007,3.27346 0.007,3.27346 -8.25,8.62588 -8.25,8.62588 4.2881,-0.55929 4.2881,-0.5593 2.60217,-1.84004 2.60217,-1.84005 1.31177,-0.96463 1.31176,-0.96463 0.67183,0.67182 0.67182,0.67183 -0.87386,7.46128 -0.87386,7.46128 z m -240.13734,-0.25362 -2.08156,-0.84208 -2.81998,-3.34453 -2.81997,-3.34454 -1.23752,-3 -1.23751,-3 -0.68609,-5.11408 -0.6861,-5.11408 1.14399,-4.24845 1.14399,-4.24844 3.74658,-4.01653 3.74658,-4.01653 4.93457,-0.46006 4.93458,-0.46006 3.5,2.34056 3.5,2.34056 2.493,4.99856 2.49299,4.99855 -0.0738,6 -0.0738,6 -1.78334,3.5 -1.78334,3.5 -2.63584,2.83928 -2.63584,2.83927 -2.70034,1.41073 -2.70034,1.41072 -1.79966,-0.0634 -1.79966,-0.0634 z m 8.80054,-8.21913 1.91272,-3.68797 0.56198,-5.44497 0.56197,-5.44497 -1.20773,-5.03438 -1.20773,-5.03439 -1.83763,-1.66302 -1.83763,-1.66303 -2.3231,0.33035 -2.32309,0.33036 -1.48819,3 -1.48819,3 0.051,6.5 0.051,6.5 0.70411,3.64855 0.70411,3.64856 2.08684,2.65298 2.08684,2.65299 1.54001,-0.30154 1.54001,-0.30154 z m 21.03102,7.84659 -4.25,-1.04273 0.0137,-2.55794 0.0137,-2.55794 0.60298,-2.25 0.60297,-2.25 h 0.91671 0.9167 l 3.5,3.5 3.5,3.5 h 0.53241 0.5324 l 1.92391,-1.02964 1.92391,-1.02965 1.57378,-3.04334 1.57377,-3.04335 -0.6402,-2.91482 -0.64021,-2.91483 -2.46123,-1.93601 -2.46124,-1.93601 -5.49159,0.56679 -5.49158,0.56678 1.11365,-2.89296 1.11366,-2.89296 0.11603,-6.75 0.11603,-6.75 h 11.29992 11.29991 v 1.91821 1.91822 l -0.60699,1.58178 -0.60699,1.58179 h -7.27638 -7.27638 l -0.60297,2.25 -0.60298,2.25 -0.0137,0.75 -0.0137,0.75 h 5.15484 5.15483 l 3.70935,3.89933 3.70934,3.89933 0.48101,2.51623 0.481,2.51622 -1.39902,3.32731 -1.39903,3.3273 -2.19616,2.35446 -2.19616,2.35446 -3.71016,1.90268 -3.71016,1.90268 -2.28984,-0.14933 -2.28984,-0.14933 z m 76.33881,-2.01008 -3.5536,-3.35147 -1.99564,-4.39853 -1.99564,-4.39853 -0.022,-6.43427 -0.022,-6.43428 2.08583,-4.30874 2.08583,-4.30875 2.961,-2.10842 2.96099,-2.10841 3.88656,-0.5213 3.88655,-0.5213 3.35471,2.07333 3.35471,2.07333 2.46191,4.2994 2.46191,4.29941 v 7.57842 7.57842 l -3.03112,4.90272 -3.03111,4.90271 -3.36677,2.26887 -3.36676,2.26886 h -2.78092 -2.78091 z m 9.29883,-3.7583 1.96555,-2.10976 1.2029,-5.01426 1.2029,-5.01425 -0.63308,-6.05698 -0.63308,-6.05698 -1.55468,-2.37274 -1.55468,-2.37275 -1.59932,-0.61371 -1.59931,-0.61372 -2.19884,2.55631 -2.19885,2.55631 -0.6711,5.05899 -0.67109,5.05899 1.08405,6.78588 1.08405,6.78588 1.59846,1.76628 1.59846,1.76628 h 0.80605 0.80606 z m 57.11236,5.89145 -2.5,-0.96566 -10.25,0.42789 -10.25,0.4279 v -2.34002 -2.34002 l 7.99295,-8.60634 7.99296,-8.60634 1.16622,-3.89249 1.16621,-3.8925 -1.13773,-2.49705 -1.13773,-2.49705 h -2.96474 -2.96473 l -1.5567,2.22251 -1.55671,2.2225 v 1.7775 1.77749 h -1.27749 -1.2775 l -2.21983,-1.55483 -2.21983,-1.55483 1.46141,-2.82605 1.46141,-2.82606 3.11264,-2.61911 3.11264,-2.61912 h 5.02328 5.02327 l 3.4,3.4 3.4,3.4 v 4.9987 4.99869 l -7,7.49553 -7,7.49553 v 0.60578 0.60577 h 4.07693 4.07692 l 3,-3 3,-3 h 1.0383 1.0383 l -0.70744,5.66219 -0.70745,5.66218 -0.65778,1.71149 -0.65778,1.71149 z m 21.24705,0.5122 -2.25296,-0.43375 -3.38881,-3.19607 -3.38882,-3.19606 -1.60823,-5.4155 -1.60823,-5.4155 v -3.45248 -3.45248 l 1.20072,-4.00764 1.20072,-4.00764 3.07372,-3.2591 3.07373,-3.2591 4.18899,-1.12798 4.18899,-1.12797 3.28657,1.39068 3.28656,1.39068 1.71186,1.92461 1.71187,1.92462 1.66133,3.9634 1.66134,3.9634 0.0449,6 0.0449,6 -2.06528,4 -2.06529,4 -2.56452,2.76019 -2.56452,2.76018 -2.60341,0.98982 -2.60341,0.98981 -0.6849,-0.13618 -0.6849,-0.13618 z m 4.71351,-5.27277 1.82907,-0.97889 1.10519,-3.17033 1.10518,-3.17034 v -8.40043 -8.40044 l -1.52568,-2.95034 -1.52568,-2.95034 h -3.02534 -3.02535 l -1.44897,3.46788 -1.44898,3.46788 0.006,6.78212 0.006,6.78212 1.03211,3.71626 1.03211,3.71626 1.53374,1.53374 1.53374,1.53374 h 0.49431 0.49431 z m 61.03857,3.70414 8.7e-4,-1.77475 2.5,-0.9505 2.5,-0.9505 -0.0153,-2.27475 -0.0153,-2.27475 -0.92596,-1.46399 -0.92596,-1.46399 -7.05873,-0.39886 -7.05873,-0.39885 v -1.29991 -1.29991 l 6.57299,-8.33724 6.57299,-8.33725 2.10503,-3.73911 2.10504,-3.73912 1.94682,-0.6179 1.94682,-0.61789 0.85984,1.35701 0.85985,1.35701 0.0153,5.61043 0.0153,5.61043 0.63593,4.63957 0.63592,4.63957 h 2.36408 2.36407 v 1.47695 1.47695 l -2.5,1.63806 -2.5,1.63806 v 3.47861 3.47861 l 2,0.52301 2,0.52301 -0.002,2.13337 -0.002,2.13337 h -8.49884 -8.49885 z m 4.42944,-17.29668 1.57143,-1.57143 v -4.42857 -4.42857 h -0.58971 -0.5897 l -1.93067,2.25 -1.93066,2.25 -1.57393,2.8827 -1.57393,2.8827 1.3443,0.85199 1.3443,0.85199 1.17857,0.0153 1.17857,0.0153 z"
       id="path6" /><path
       style="fill:#000000"
       d="m 508.29025,801.89918 -13.5,-11.48477 -6.54275,-6.86083 -6.54275,-6.86082 -3.12448,-5.87745 -3.12448,-5.87745 -1.10899,-6.15191 -1.10899,-6.15191 1.05334,-4.70019 1.05333,-4.70018 1.38361,-2.6479 1.3836,-2.64791 2.83928,-2.63583 2.83928,-2.63584 3.09894,-1.56173 3.09894,-1.56173 4.54697,-1.14494 4.54698,-1.14494 5.60341,1.16327 5.60342,1.16326 1.42924,1.42924 1.42924,1.42924 h 0.60198 0.60198 l 3.10659,3.53822 3.1066,3.53821 1.92768,1.03167 1.92769,1.03166 4.8999,-4.97779 4.8999,-4.9778 5.13953,-1.70708 5.13954,-1.70708 4.99424,0.6625 4.99423,0.66251 3.9015,1.56107 3.9015,1.56107 v 0.89142 0.89142 l 1.25,0.0314 1.25,0.0314 1.90684,2.61461 1.90684,2.61461 2.34316,4.40688 2.34316,4.40688 v 5.46066 5.46065 l -0.8423,1.73643 -0.8423,1.73643 -2.31003,4.77521 -2.31004,4.7752 -7.59766,8.91656 -7.59767,8.91656 -1.16111,0.0582 -1.16111,0.0582 -2.52433,3 -2.52433,3 h -0.99198 -0.99198 l -1.9665,2.5 -1.9665,2.5 -0.85608,0.0109 -0.85608,0.0109 -6.45031,5.98914 -6.4503,5.98913 -1.0497,-0.0269 -1.04969,-0.027 z m -15.99626,-39.21132 0.004,-3.75 1.97196,-3.2342 1.97195,-3.2342 5.06023,-3.63541 5.06023,-3.63541 -2.40455,-3.13039 -2.40455,-3.13039 -2.73887,-0.32679 -2.73886,-0.3268 -2.89711,1.20003 -2.89711,1.20002 -2.89383,3.29589 -2.89384,3.2959 -0.66801,3.95395 -0.66802,3.95395 1.60459,3.84033 1.60459,3.84033 1.61685,1.7866 1.61685,1.78659 h 1.34501 1.34502 z"
       id="path7" /></g></svg>
